<svg viewBox="7.536 11.303 60 30" xmlns="http://www.w3.org/2000/svg" fill="#000000">
  <path d="M 12.757 24.174 C 13.13 24.174 13.454 24.127 13.731 24.034 C 14.008 23.941 14.238 23.807 14.422 23.634 C 14.606 23.46 14.743 23.249 14.833 23 C 14.924 22.75 14.969 22.472 14.969 22.165 C 14.969 21.873 14.924 21.609 14.833 21.372 C 14.743 21.136 14.607 20.935 14.426 20.768 C 14.244 20.602 14.015 20.475 13.739 20.387 C 13.462 20.299 13.135 20.255 12.757 20.255 L 11.24 20.255 L 11.24 24.174 Z M 12.757 18.685 C 13.487 18.685 14.119 18.77 14.652 18.941 C 15.186 19.113 15.626 19.352 15.973 19.659 C 16.321 19.966 16.579 20.333 16.747 20.761 C 16.916 21.189 17 21.657 17 22.165 C 17 22.694 16.912 23.178 16.736 23.619 C 16.56 24.059 16.295 24.438 15.943 24.755 C 15.591 25.072 15.149 25.319 14.618 25.495 C 14.087 25.671 13.467 25.759 12.757 25.759 L 11.24 25.759 L 11.24 29.602 L 9.209 29.602 L 9.209 18.685 Z M 20.124 18.383 L 20.124 29.602 L 18.259 29.602 L 18.259 18.383 Z M 26.08 26.295 C 25.542 26.32 25.089 26.367 24.721 26.435 C 24.354 26.503 24.059 26.59 23.838 26.695 C 23.616 26.801 23.458 26.924 23.362 27.065 C 23.266 27.206 23.219 27.36 23.219 27.526 C 23.219 27.853 23.316 28.087 23.509 28.228 C 23.703 28.369 23.956 28.439 24.268 28.439 C 24.651 28.439 24.982 28.37 25.261 28.232 C 25.54 28.093 25.813 27.883 26.08 27.601 Z M 21.807 22.935 C 22.698 22.12 23.77 21.712 25.023 21.712 C 25.476 21.712 25.881 21.786 26.239 21.935 C 26.596 22.083 26.898 22.29 27.145 22.554 C 27.391 22.818 27.579 23.134 27.707 23.502 C 27.835 23.869 27.9 24.272 27.9 24.71 L 27.9 29.602 L 27.054 29.602 C 26.878 29.602 26.742 29.576 26.646 29.523 C 26.551 29.47 26.475 29.363 26.42 29.202 L 26.254 28.643 C 26.057 28.819 25.866 28.974 25.68 29.107 C 25.494 29.241 25.3 29.353 25.099 29.443 C 24.897 29.534 24.682 29.603 24.453 29.651 C 24.224 29.699 23.971 29.723 23.694 29.723 C 23.367 29.723 23.065 29.679 22.788 29.591 C 22.511 29.503 22.272 29.37 22.071 29.194 C 21.87 29.018 21.714 28.799 21.603 28.537 C 21.492 28.276 21.437 27.971 21.437 27.624 C 21.437 27.428 21.47 27.233 21.535 27.039 C 21.6 26.845 21.707 26.66 21.856 26.484 C 22.004 26.308 22.197 26.142 22.433 25.986 C 22.67 25.83 22.961 25.694 23.305 25.578 C 23.65 25.462 24.052 25.368 24.51 25.295 C 24.968 25.222 25.491 25.178 26.08 25.163 L 26.08 24.71 C 26.08 24.191 25.969 23.807 25.748 23.558 C 25.526 23.309 25.207 23.184 24.789 23.184 C 24.487 23.184 24.237 23.22 24.038 23.29 C 23.839 23.361 23.664 23.44 23.513 23.528 C 23.362 23.616 23.225 23.695 23.102 23.766 C 22.978 23.836 22.841 23.872 22.69 23.872 C 22.559 23.872 22.449 23.838 22.358 23.77 C 22.267 23.702 22.194 23.622 22.139 23.532 Z M 31.394 22.807 C 31.55 22.651 31.715 22.506 31.888 22.373 C 32.062 22.239 32.246 22.126 32.439 22.033 C 32.633 21.94 32.841 21.867 33.062 21.814 C 33.284 21.761 33.525 21.735 33.787 21.735 C 34.21 21.735 34.585 21.807 34.912 21.95 C 35.239 22.094 35.512 22.295 35.731 22.554 C 35.95 22.813 36.116 23.123 36.229 23.483 C 36.343 23.843 36.399 24.239 36.399 24.672 L 36.399 29.602 L 34.534 29.602 L 34.534 24.672 C 34.534 24.199 34.426 23.833 34.21 23.573 C 33.993 23.314 33.664 23.184 33.221 23.184 C 32.899 23.184 32.597 23.257 32.315 23.403 C 32.033 23.549 31.766 23.748 31.514 24 L 31.514 29.602 L 29.65 29.602 L 29.65 21.856 L 30.79 21.856 C 31.031 21.856 31.19 21.969 31.265 22.195 Z M 39.908 22.807 C 40.064 22.651 40.229 22.506 40.403 22.373 C 40.577 22.239 40.76 22.126 40.954 22.033 C 41.148 21.94 41.355 21.867 41.577 21.814 C 41.798 21.761 42.04 21.735 42.302 21.735 C 42.724 21.735 43.099 21.807 43.427 21.95 C 43.754 22.094 44.027 22.295 44.246 22.554 C 44.465 22.813 44.631 23.123 44.744 23.483 C 44.857 23.843 44.914 24.239 44.914 24.672 L 44.914 29.602 L 43.049 29.602 L 43.049 24.672 C 43.049 24.199 42.941 23.833 42.724 23.573 C 42.508 23.314 42.178 23.184 41.735 23.184 C 41.413 23.184 41.111 23.257 40.829 23.403 C 40.548 23.549 40.281 23.748 40.029 24 L 40.029 29.602 L 38.164 29.602 L 38.164 21.856 L 39.304 21.856 C 39.546 21.856 39.704 21.969 39.78 22.195 Z M 51.669 24.838 C 51.669 24.596 51.635 24.369 51.568 24.155 C 51.5 23.941 51.398 23.753 51.262 23.592 C 51.126 23.431 50.953 23.304 50.745 23.211 C 50.536 23.118 50.293 23.071 50.016 23.071 C 49.477 23.071 49.053 23.225 48.744 23.532 C 48.434 23.839 48.237 24.274 48.151 24.838 Z M 48.113 25.963 C 48.144 26.361 48.214 26.704 48.325 26.993 C 48.436 27.283 48.582 27.522 48.763 27.711 C 48.944 27.899 49.159 28.04 49.408 28.134 C 49.657 28.227 49.933 28.273 50.235 28.273 C 50.537 28.273 50.797 28.238 51.016 28.167 C 51.235 28.097 51.427 28.019 51.59 27.933 C 51.754 27.848 51.897 27.77 52.021 27.699 C 52.144 27.629 52.263 27.594 52.379 27.594 C 52.535 27.594 52.651 27.652 52.726 27.767 L 53.263 28.447 C 53.056 28.688 52.825 28.891 52.568 29.055 C 52.311 29.218 52.043 29.349 51.764 29.447 C 51.484 29.545 51.2 29.615 50.911 29.655 C 50.621 29.695 50.341 29.715 50.069 29.715 C 49.53 29.715 49.029 29.626 48.566 29.447 C 48.103 29.269 47.701 29.004 47.358 28.654 C 47.016 28.305 46.747 27.872 46.551 27.356 C 46.354 26.84 46.256 26.242 46.256 25.563 C 46.256 25.034 46.342 24.537 46.513 24.072 C 46.684 23.606 46.929 23.201 47.249 22.856 C 47.569 22.511 47.959 22.238 48.419 22.037 C 48.88 21.836 49.399 21.735 49.978 21.735 C 50.466 21.735 50.917 21.813 51.33 21.969 C 51.742 22.125 52.097 22.353 52.394 22.652 C 52.691 22.952 52.924 23.319 53.093 23.755 C 53.261 24.19 53.346 24.687 53.346 25.246 C 53.346 25.528 53.315 25.718 53.255 25.816 C 53.195 25.914 53.079 25.963 52.908 25.963 Z M 56.5 23.2 C 56.741 22.737 57.028 22.373 57.36 22.109 C 57.693 21.844 58.085 21.712 58.538 21.712 C 58.896 21.712 59.183 21.79 59.399 21.946 L 59.278 23.343 C 59.253 23.434 59.217 23.498 59.169 23.536 C 59.121 23.573 59.057 23.592 58.976 23.592 C 58.901 23.592 58.789 23.58 58.64 23.554 C 58.492 23.529 58.347 23.517 58.206 23.517 C 58 23.517 57.816 23.547 57.655 23.607 C 57.494 23.668 57.349 23.755 57.221 23.868 C 57.092 23.981 56.979 24.118 56.881 24.279 C 56.783 24.44 56.691 24.624 56.605 24.83 L 56.605 29.602 L 54.741 29.602 L 54.741 21.856 L 55.835 21.856 C 56.027 21.856 56.16 21.89 56.236 21.958 C 56.311 22.026 56.361 22.148 56.387 22.324 Z" style="white-space: pre;"/>
  <path d="M 54.793 36.926 L 50.667 32.8 L 49.291 34.176 L 54.793 39.678 L 66.585 27.886 L 65.211 26.51 L 54.793 36.926 Z" style=""/>
  <rect x="9" y="34" width="36" height="2"/>
</svg>